<svg width="26" height="21" viewBox="0 0 26 21" fill="none" xmlns="http://www.w3.org/2000/svg">
<path class="fill-white" fill-rule="evenodd" clip-rule="evenodd" d="M25.0521 16.9478C25.8267 15.3608 26 13.53 26 11.8022C26 9.53265 25.3771 7.37147 23.8875 5.61652C24.1637 4.77696 24.3046 3.89407 24.3046 3.00576C24.3046 1.84121 24.0446 1.25623 23.5137 0.200012C21.0871 0.200012 19.5163 0.660415 17.6746 2.10662C16.2554 1.76538 14.7821 1.6083 13.3196 1.6083C11.7 1.6083 10.0858 1.77622 8.515 2.14995C6.64625 0.687498 5.07542 0.200012 2.62167 0.200012C2.09625 1.25623 1.83083 1.84121 1.83083 3.00576C1.83083 3.89407 1.96625 4.79321 2.24792 5.64902C0.752917 7.38771 0 9.53265 0 11.8022C0 13.53 0.303333 15.3771 1.09417 16.9478C3.15973 21.0107 8.82786 21.0043 12.9126 20.9997L13.3142 20.9994L13.5864 20.9995C17.6045 21.0016 23.0449 21.0045 25.0521 16.9478ZM8.09254 17.522C9.49004 17.522 10.0805 15.6695 10.0805 14.5375C10.0805 13.4054 9.49004 11.553 8.09254 11.553C6.69504 11.553 6.10462 13.4054 6.10462 14.5375C6.10462 15.6695 6.69504 17.522 8.09254 17.522ZM22.5171 14.5375C22.5171 12.1597 21.0708 10.0635 18.5358 10.0635C17.7266 10.0635 16.9444 10.1785 16.1438 10.2963C15.9316 10.3275 15.7181 10.359 15.5025 10.3885C14.6954 10.513 13.8883 10.5618 13.0596 10.5618C12.2362 10.5618 11.4291 10.513 10.6166 10.3885C10.4172 10.3607 10.2185 10.3313 10.0203 10.302L10.0203 10.302C9.21182 10.1822 8.40979 10.0635 7.58331 10.0635C5.04831 10.0635 3.60206 12.1597 3.60206 14.5375C3.60206 19.2932 7.95706 20.0244 11.7487 20.0244H14.3596C18.1675 20.0244 22.5171 19.2986 22.5171 14.5375ZM16.055 14.5375C16.055 13.4054 16.6454 11.553 18.0429 11.553C19.4404 11.553 20.0308 13.4054 20.0308 14.5375C20.0308 15.6695 19.4404 17.522 18.0429 17.522C16.6454 17.522 16.055 15.6695 16.055 14.5375Z"/>
</svg>
