<svg width="19" height="23" viewBox="0 0 19 23" fill="none" xmlns="http://www.w3.org/2000/svg">
<path class="fill-white" fill-rule="evenodd" clip-rule="evenodd" d="M15.208 16.7881C18.8179 14.0063 19.9175 8.9463 17.5988 4.93008C15.0702 0.550419 9.43407 -0.929457 5.01018 1.62468C0.586279 4.17882 -0.950167 9.79977 1.57843 14.1794C3.98205 18.3426 9.19361 19.8856 13.5027 17.8341L16.0749 22.2892C16.3482 22.7627 16.9576 22.9227 17.4358 22.6466C17.9141 22.3704 18.0802 21.7628 17.8068 21.2893L15.208 16.7881ZM16.1143 5.69191C18.1645 9.24299 16.9187 13.8005 13.3318 15.8714C9.74482 17.9424 5.175 16.7425 3.12479 13.1914C1.07457 9.64031 2.32033 5.08279 5.90728 3.01186C9.49423 0.940934 14.064 2.14084 16.1143 5.69191Z"/>
</svg>
